<?xml version="1.0" encoding="UTF-8"?>
<svg id="Layer_1" xmlns="http://www.w3.org/2000/svg" version="1.1" viewBox="0 0 640 640">
  <!-- Generator: Adobe Illustrator 30.4.0, SVG Export Plug-In . SVG Version: 2.1.4 Build 226)  -->
  <defs>
    <style>
      .st0 {
        fill: #fff;
      }
    </style>
  </defs>
  <path class="st0" d="M319.8,64c3.8-.1,7.1,2.5,8,6.1l90.1,375.6,54.7-136.7c1.2-3,4.2-5,7.4-5h120c4.4,0,8,3.6,8,8s-3.6,8-8,8h-114.6l-62,155c-1.3,3.2-4.5,5.3-8,5s-6.4-2.7-7.2-6.1l-87.4-364.1-89,459.7c-.7,3.7-3.9,6.4-7.6,6.5s-7.1-2.4-8-6.1l-62.4-249.9H40c-4.4,0-8-3.6-8-8s3.6-8,8-8h120c3.7,0,6.9,2.5,7.8,6.1l55.2,220.9,89.1-460.5c.7-3.7,3.9-6.4,7.7-6.5Z"/>
</svg>